<?xml version="1.0" encoding="UTF-8"?>
<svg width="1200pt" height="1200pt" version="1.1" viewBox="0 0 1200 1200" xmlns="http://www.w3.org/2000/svg" fill="#474747">
 <path d="m252 552c0.0625 45.711 15.473 90.074 43.758 125.98 28.289 35.906 67.816 61.27 112.24 72.023v12c-0.097656 38.59 7.4531 76.82 22.223 112.47 14.77 35.656 36.461 68.027 63.816 95.246 8.9062 9.3945 21.23 14.789 34.172 14.965 12.941 0.17969 25.406-4.8789 34.566-14.023 9.1602-9.1445 14.242-21.602 14.086-34.543-0.15234-12.941-5.5273-25.273-14.902-34.195-18.422-18.32-33.027-40.105-42.977-64.102-9.9453-23.996-15.039-49.723-14.984-75.699v-6.1211h96l32.281 20.641 145.56 93.602v-0.003907c22.367 14.336 49.148 20.137 75.441 16.34s50.34-16.941 67.734-37.02 26.973-45.754 26.984-72.32v-450.6c0.027344-26.617-9.5547-52.348-26.98-72.469-17.426-20.117-41.527-33.27-67.875-37.043-26.348-3.7734-53.172 2.0898-75.543 16.512l-145.56 93.602-32.043 20.758h-144c-54.105 0-105.99 21.492-144.25 59.75s-59.75 90.145-59.75 144.25zm577.56-237.6c2.9219-1.8984 6.4258-2.6875 9.8789-2.2188 3.4492 0.46875 6.6172 2.1641 8.9258 4.7734 2.3047 2.6133 3.5977 5.9648 3.6367 9.4453v450.84c0.03125 3.9062-1.4961 7.6602-4.2461 10.43-2.75 2.7734-6.4922 4.332-10.395 4.332-2.7812 0.003906-5.5-0.83203-7.8008-2.3984l-145.56-93.602v-288zm-373.56 129.6h132v216h-132c-38.586 0-74.238-20.586-93.531-54s-19.293-74.586 0-108 54.945-54 93.531-54z"/>
</svg>
