<?xml version="1.0" encoding="UTF-8"?>
<svg width="1200pt" height="1200pt" version="1.1" viewBox="0 0 1200 1200" xmlns="http://www.w3.org/2000/svg" fill="#474747">
 <path d="m459.6 294.7c-9.418-9.418-13.098-23.141-9.6484-36.004 3.4453-12.863 13.492-22.914 26.355-26.359 12.867-3.4453 26.59 0.23047 36.008 9.6484l50.398 50.398v-125.07c0-13.32 7.1094-25.629 18.645-32.289s25.746-6.6602 37.281 0 18.645 18.969 18.645 32.289v125.09l50.398-50.398c9.4297-9.3438 23.117-12.969 35.934-9.5156 12.82 3.457 22.832 13.465 26.289 26.285 3.457 12.816-0.16406 26.504-9.5078 35.934l-114 114c-6.9922 6.9922-16.473 10.922-26.363 10.922-9.8867 0-19.371-3.9297-26.363-10.922zm166.8 496.56-0.003906 0.003906c-6.9922-6.9922-16.477-10.918-26.363-10.918-9.8867 0-19.371 3.9258-26.363 10.918l-114 114c-9.418 9.4141-13.094 23.141-9.6484 36.004 3.4492 12.863 13.496 22.91 26.359 26.359 12.863 3.4453 26.59-0.23047 36.004-9.6484l50.398-50.398 0.003906 125.12c0 13.32 7.1055 25.629 18.641 32.289 11.535 6.6602 25.75 6.6602 37.285 0s18.641-18.969 18.641-32.289v-125.09l50.398 50.398h0.003906c9.5195 8.8281 22.953 12.066 35.453 8.5391 12.496-3.5234 22.262-13.297 25.77-25.801 3.5117-12.5 0.25781-25.93-8.582-35.441zm513.6-269.77v157.03c-0.019531 16.66-6.6484 32.633-18.43 44.414-11.781 11.777-27.754 18.402-44.414 18.418h-954.31c-16.66-0.015625-32.633-6.6406-44.414-18.418-11.781-11.781-18.41-27.754-18.43-44.414v-157.03c0.019531-16.66 6.6484-32.633 18.43-44.414 11.781-11.777 27.754-18.402 44.414-18.418h954.31c16.66 0.015625 32.633 6.6406 44.414 18.418 11.781 11.781 18.41 27.754 18.43 44.414z"/>
</svg>
