<?xml version="1.0" encoding="UTF-8"?>
<svg width="1200pt" height="1200pt" version="1.1" viewBox="0 0 1200 1200" xmlns="http://www.w3.org/2000/svg" fill="#474747">
 <g>
  <path d="m216 768v72c0 38.191 15.172 74.816 42.176 101.82 27.008 27.004 63.633 42.176 101.82 42.176h480c38.191 0 74.816-15.172 101.82-42.176 27.004-27.008 42.176-63.633 42.176-101.82v-384c0-38.191-15.172-74.816-42.176-101.82-27.008-27.004-63.633-42.176-101.82-42.176h-148.08l-67.922-67.922c-18.02-17.996-42.453-28.098-67.922-28.078h-196.08c-38.191 0-74.816 15.172-101.82 42.176-27.004 27.008-42.176 63.633-42.176 101.82zm96-408c0-12.73 5.0586-24.938 14.059-33.941 9.0039-9 21.211-14.059 33.941-14.059h196.08l67.922 67.922c18.02 17.996 42.453 28.098 67.922 28.078h148.08c12.73 0 24.938 5.0586 33.941 14.059 9 9.0039 14.059 21.211 14.059 33.941v384c0 12.73-5.0586 24.938-14.059 33.941-9.0039 9-21.211 14.059-33.941 14.059h-480c-12.73 0-24.938-5.0586-33.941-14.059-9-9.0039-14.059-21.211-14.059-33.941z"/>
  <path d="m600 816c44.555 0 87.289-17.699 118.79-49.207 31.508-31.504 49.207-74.238 49.207-118.79s-17.699-87.289-49.207-118.79c-31.504-31.508-74.238-49.207-118.79-49.207s-87.289 17.699-118.79 49.207c-31.508 31.504-49.207 74.238-49.207 118.79s17.699 87.289 49.207 118.79c31.504 31.508 74.238 49.207 118.79 49.207zm0-240c19.094 0 37.41 7.5859 50.91 21.09 13.504 13.5 21.09 31.816 21.09 50.91s-7.5859 37.41-21.09 50.91c-13.5 13.504-31.816 21.09-50.91 21.09s-37.41-7.5859-50.91-21.09c-13.504-13.5-21.09-31.816-21.09-50.91s7.5859-37.41 21.09-50.91c13.5-13.504 31.816-21.09 50.91-21.09z"/>
  <path d="m480 432c0 26.508-21.492 48-48 48s-48-21.492-48-48 21.492-48 48-48 48 21.492 48 48"/>
 </g>
</svg>
