<?xml version="1.0" encoding="UTF-8"?>
<svg width="1200pt" height="1200pt" version="1.1" viewBox="0 0 1200 1200" xmlns="http://www.w3.org/2000/svg" fill="#474747">
 <path d="m312 948h576c22.602 0.0625 44.496-7.8516 61.836-22.348 17.34-14.496 29.008-34.645 32.953-56.895 3.9453-22.254-0.089843-45.188-11.391-64.758l-288-504c-11.246-19.676-29.094-34.734-50.379-42.516-21.285-7.7812-44.637-7.7812-65.922 0s-39.129 22.84-50.379 42.516l-288 504c-11.293 19.559-15.328 42.477-11.395 64.715 3.9336 22.242 15.582 42.387 32.898 56.887s39.191 22.434 61.777 22.398zm205.68-96 82.32-144 82.32 144zm82.32-504 288 504h-95.16l-27.238-48-82.203-144-30.719-53.879c-6.9375-12.602-18.172-22.293-31.656-27.305-13.484-5.0117-28.32-5.0117-41.805 0-13.484 5.0117-24.719 14.703-31.66 27.305l-30.957 53.879-82.203 144-27.238 48h-95.16z"/>
</svg>
