<?xml version="1.0" encoding="UTF-8"?>
<svg width="1200pt" height="1200pt" version="1.1" viewBox="0 0 1200 1200" xmlns="http://www.w3.org/2000/svg" fill="#474747">
 <g>
  <path d="m903.96 649.08c-14.125 2.7188-27.07 9.7148-37.082 20.043l-190.8 190.8c-17.969 17.988-28.066 42.371-28.078 67.797v32.281c0 6.3633 2.5273 12.469 7.0312 16.969 4.5 4.5039 10.605 7.0312 16.969 7.0312h32.281c25.469 0.019531 49.898-10.082 67.918-28.078l190.68-190.8c10.328-10.012 17.324-22.957 20.043-37.082 3.9766-21.922-3.0469-44.402-18.805-60.156-15.754-15.758-38.234-22.781-60.156-18.805z"/>
  <path d="m336 984h168c17.148 0 32.996-9.1484 41.57-24 8.5742-14.852 8.5742-33.148 0-48-8.5742-14.852-24.422-24-41.57-24h-168c-6.3633 0-12.469-2.5273-16.969-7.0312-4.5039-4.5-7.0312-10.605-7.0312-16.969v-528c0-6.3633 2.5273-12.469 7.0312-16.969 4.5-4.5039 10.605-7.0312 16.969-7.0312h280.08l127.92 127.92v112.08c0 17.148 9.1484 32.996 24 41.57 14.852 8.5742 33.148 8.5742 48 0 14.852-8.5742 24-24.422 24-41.57v-112.08c0.019531-25.469-10.082-49.902-28.078-67.922l-127.92-127.92c-18.02-17.996-42.453-28.098-67.922-28.078h-280.08c-31.824 0-62.348 12.645-84.852 35.148-22.504 22.504-35.148 53.027-35.148 84.852v528c0 31.824 12.645 62.348 35.148 84.852 22.504 22.504 53.027 35.148 84.852 35.148z"/>
 </g>
</svg>
