<?xml version="1.0" encoding="UTF-8"?>
<svg width="1200pt" height="1200pt" version="1.1" viewBox="0 0 1200 1200" xmlns="http://www.w3.org/2000/svg" fill="#ffffff">
 <g>
  <path d="m936 888h-672c-17.148 0-32.996 9.1484-41.57 24-8.5742 14.852-8.5742 33.148 0 48 8.5742 14.852 24.422 24 41.57 24h672c17.148 0 32.996-9.1484 41.57-24 8.5742-14.852 8.5742-33.148 0-48-8.5742-14.852-24.422-24-41.57-24z"/>
  <path d="m264 708v48c0 17.148 9.1484 32.996 24 41.57 14.852 8.5742 33.148 8.5742 48 0 14.852-8.5742 24-24.422 24-41.57v-48c0-17.148-9.1484-32.996-24-41.57-14.852-8.5742-33.148-8.5742-48 0-14.852 8.5742-24 24.422-24 41.57z"/>
  <path d="m456 564v192c0 17.148 9.1484 32.996 24 41.57 14.852 8.5742 33.148 8.5742 48 0 14.852-8.5742 24-24.422 24-41.57v-192c0-17.148-9.1484-32.996-24-41.57-14.852-8.5742-33.148-8.5742-48 0-14.852 8.5742-24 24.422-24 41.57z"/>
  <path d="m648 648v108c0 17.148 9.1484 32.996 24 41.57 14.852 8.5742 33.148 8.5742 48 0 14.852-8.5742 24-24.422 24-41.57v-108c0-17.148-9.1484-32.996-24-41.57-14.852-8.5742-33.148-8.5742-48 0-14.852 8.5742-24 24.422-24 41.57z"/>
  <path d="m840 576v180c0 17.148 9.1484 32.996 24 41.57 14.852 8.5742 33.148 8.5742 48 0 14.852-8.5742 24-24.422 24-41.57v-180c0-17.148-9.1484-32.996-24-41.57-14.852-8.5742-33.148-8.5742-48 0-14.852 8.5742-24 24.422-24 41.57z"/>
  <path d="m957.96 230.04c-9.0039-9.0117-21.223-14.078-33.961-14.078s-24.957 5.0664-33.961 14.078l-166.56 165.96c-7.4141 7.0938-17.281 11.051-27.539 11.051-10.262 0-20.129-3.957-27.543-11.051l-64.801-64.801h0.003906c-28.02-28.027-66.027-43.777-105.66-43.777-39.633 0-77.641 15.75-105.66 43.777l-150.24 150.84c-12.133 12.133-16.871 29.816-12.43 46.391 4.4414 16.574 17.387 29.52 33.961 33.961 16.574 4.4414 34.258-0.29688 46.391-12.43l150.24-150.36c10.012-10.004 23.586-15.621 37.742-15.621 14.152 0 27.727 5.6172 37.738 15.621l64.801 64.801v-0.003906c25.297 25.312 59.613 39.531 95.398 39.531s70.105-14.219 95.402-39.531l166.68-166.44c9.0117-9.0039 14.078-21.223 14.078-33.961s-5.0664-24.957-14.078-33.961z"/>
 </g>
</svg>
