<?xml version="1.0" encoding="UTF-8"?>
<svg width="1200pt" height="1200pt" version="1.1" viewBox="0 0 1200 1200" xmlns="http://www.w3.org/2000/svg" fill="#ffffff">
 <path d="m264 984c12.734 0.011719 24.949-5.0391 33.961-14.039l105.96-105.96h286.32c33.434-0.039062 66.367-8.0625 96.07-23.406 29.703-15.34 55.309-37.555 74.691-64.793 56.16-78.961 123-215.16 123-415.8v-24c0-31.824-12.645-62.348-35.148-84.852-22.504-22.504-53.027-35.148-84.852-35.148h-24c-200.64 0-336.84 66.961-415.8 123-27.238 19.383-49.453 44.988-64.793 74.691-15.344 29.703-23.367 62.637-23.406 96.07v286.32l-105.96 105.96c-9.0117 9.0039-14.074 21.219-14.078 33.957 0 12.738 5.0625 24.953 14.07 33.957 9.0117 9.0039 21.23 14.059 33.969 14.047zm168-432v-42.238c0.039062-36.805 17.934-71.297 48-92.523 64.801-46.199 181.8-105.24 360-105.24h24c6.3633 0 12.469 2.5273 16.969 7.0312 4.5039 4.5 7.0312 10.605 7.0312 16.969v24c0 178.2-59.039 295.2-105.24 360-21.227 30.066-55.719 47.961-92.523 48h-190.32l230.04-230.04c12.133-12.133 16.871-29.816 12.43-46.391-4.4414-16.574-17.387-29.52-33.961-33.961-16.574-4.4414-34.258 0.29688-46.391 12.43l-230.04 230.04z"/>
</svg>
