<?xml version="1.0" encoding="UTF-8"?>
<svg width="1200pt" height="1200pt" version="1.1" viewBox="0 0 1200 1200" xmlns="http://www.w3.org/2000/svg" fill="#ffffff">
 <path d="m451.2 585.6c0 9.6016-8.3984 18-18 18h-67.199c-9.6016 0-18-8.3984-18-18v-67.199c0-9.6016 8.3984-18 18-18h67.199c9.6016 0 18 8.3984 18 18zm141.6-67.203c0-9.6016-8.3984-18-18-18h-67.199c-9.6016 0-18 8.3984-18 18v67.199c0 9.6016 8.3984 18 18 18h67.199c9.6016 0 18-8.3984 18-18zm141.6 0c0-9.6016-8.3984-18-18-18h-68.398c-9.6016 0-18 8.3984-18 18v67.199c0 9.6016 8.3984 18 18 18h67.199c9.6016 0 18-8.3984 18-18v-67.199zm-283.2 136.8c0-9.6016-8.3984-18-18-18h-67.199c-9.6016 0-18 8.3984-18 18v67.199c0 9.6016 8.3984 18 18 18h67.199c9.6016 0 18-8.3984 18-18zm141.6 0c0-9.6016-8.3984-18-18-18h-67.199c-9.6016 0-18 8.3984-18 18v67.199c0 9.6016 8.3984 18 18 18h67.199c9.6016 0 18-8.3984 18-18zm123.6-18h-68.398c-9.6016 0-18 8.3984-18 18v67.199c0 9.6016 8.3984 18 18 18h67.199c9.6016 0 18-8.3984 18-18v-67.199c1.1992-9.5977-7.1992-18-16.801-18zm-424.8 138h-67.199c-9.6016 0-18 8.3984-18 18v67.199c0 9.6016 8.3984 18 18 18h67.199c9.6016 0 18-8.3984 18-18v-67.199c0-9.5977-7.2031-18-18-18zm18-120c0-9.6016-8.3984-18-18-18h-67.199c-9.6016 0-18 8.3984-18 18v67.199c0 9.6016 8.3984 18 18 18h67.199c9.6016 0 18-8.3984 18-18zm265.2 120h-67.199c-9.6016 0-18 8.3984-18 18v67.199c0 9.6016 8.3984 18 18 18h67.199c9.6016 0 18-8.3984 18-18v-67.199c0-9.5977-8.4023-18-18-18zm-141.6 0h-67.199c-9.6016 0-18 8.3984-18 18v67.199c0 9.6016 8.3984 18 18 18h67.199c9.6016 0 18-8.3984 18-18v-67.199c0-9.5977-8.3984-18-18-18zm423.6-171.6c9.6016 0 18-8.3984 18-18v-67.199c0-9.6016-8.3984-18-18-18h-67.199c-9.6016 0-18 8.3984-18 18v67.199c0 9.6016 8.3984 18 18 18zm-694.8 422.4h513.6c-8.3984-26.398-13.199-54-13.199-81.602h-500.4c-13.199 0-24-10.801-24-24v-483.6h805.2v225.6c28.801 0 56.398 4.8008 81.602 12v-408c0-58.801-48-105.6-105.6-105.6h-118.8v-65.996c0-21.602-16.801-38.398-38.398-38.398h-60c-21.602 0-38.398 16.801-38.398 38.398v66h-244.8v-66c0-21.602-16.801-38.398-38.398-38.398h-60c-21.602 0-38.398 16.801-38.398 38.398v66h-118.8c-58.801 0-105.6 48-105.6 105.6v652.8c-2.4023 58.797 45.598 106.8 104.4 106.8zm982.8-85.199c0 111.6-91.199 202.8-202.8 202.8s-202.8-91.199-202.8-202.8c0-111.6 91.199-202.8 202.8-202.8s202.8 91.199 202.8 202.8zm-100.8-52.801c0-6-2.3984-13.199-7.1992-16.801-9.6016-9.6016-25.199-9.6016-34.801 0l-87.602 87.602-33.602-33.602c-9.6016-9.6016-25.199-9.6016-34.801 0-4.8008 4.8008-7.1992 10.801-7.1992 16.801s2.3984 12 7.1992 16.801l50.398 50.398c9.6016 9.6016 25.199 9.6016 34.801 0l105.6-105.6c4.8047-2.3984 7.2031-8.3984 7.2031-15.598z"/>
</svg>
